<svg xmlns="http://www.w3.org/2000/svg" width="506" height="493" viewBox="0 0 506 493" version="1.1">
	<path d="M 252.406 11.710 L 247.691 21.919 243.595 21.362 C 238.359 20.649, 216.245 22.532, 206.217 24.545 C 195.280 26.741, 180.397 31.437, 169.767 36.048 C 164.756 38.222, 160.383 40, 160.050 40 C 159.717 40, 155.632 35.293, 150.972 29.540 C 146.312 23.788, 142.266 19.063, 141.979 19.040 C 141.693 19.018, 139.893 26.737, 137.979 36.194 L 134.500 53.388 117.500 64.952 L 100.500 76.516 97.750 87.008 C 93.220 104.294, 89.229 124.673, 87.568 139 C 86.030 152.265, 85.349 191.016, 86.631 192.298 C 87.126 192.793, 90.235 191.722, 91.742 190.539 C 91.876 190.434, 92.672 186.333, 93.513 181.424 C 98.746 150.859, 117.576 117.193, 144.154 90.885 C 169.435 65.860, 200.198 47.592, 235.500 36.641 C 241.534 34.769, 256.445 31, 257.817 31 C 258.358 31, 262.457 33.952, 266.926 37.561 L 275.051 44.121 276.526 40.561 C 277.337 38.602, 278.652 35.425, 279.449 33.500 L 280.898 30 292.773 30 C 305.975 30, 316.924 31.619, 336.995 36.537 C 344.417 38.356, 350.617 39.716, 350.773 39.560 C 350.929 39.404, 345.981 37.016, 339.778 34.253 C 320.143 25.508, 305.824 22.065, 285.767 21.268 L 272.034 20.722 265.767 12.663 C 262.320 8.231, 258.965 3.907, 258.311 3.053 C 257.318 1.757, 256.341 3.189, 252.406 11.710 M 347.500 58.843 C 312.296 79.512, 286.941 94, 285.974 94 C 285.356 94, 281.304 90.782, 276.970 86.850 C 268.804 79.441, 255.295 69, 253.874 69 C 252.923 69, 244.719 81.070, 240.279 89 C 230.406 106.637, 224 130.648, 224 150.020 C 224 156.866, 224.023 156.923, 229.250 163.055 C 236.732 171.831, 239.296 175.713, 238.481 177.030 C 237.536 178.560, 232.224 177.516, 225.247 174.431 C 222.224 173.094, 218.889 172, 217.836 172 C 215.382 172, 189.796 185.183, 180 191.496 C 165.277 200.983, 149 214.932, 149 218.062 C 149 219.972, 157.473 228.755, 165.500 235.166 C 183.119 249.239, 206.562 263.105, 225.749 270.803 C 237.846 275.656, 254.532 280, 261.078 280 L 265.860 280 269.918 272.648 C 274.217 264.860, 278.353 260, 280.682 260 C 282.455 260, 287.003 264.473, 286.991 266.205 C 286.979 267.806, 282.120 276.062, 277.846 281.743 L 274.653 285.985 275.910 296.994 L 277.167 308.002 271.334 314.749 C 229.570 363.051, 207.880 381.959, 194.200 381.990 C 186.212 382.008, 182.491 378.691, 179.544 368.922 C 175.954 357.027, 176.495 335.675, 181.199 303.500 C 183.166 290.054, 183.652 288.293, 185.892 286.500 C 192.706 281.046, 196.707 276.118, 197.963 271.630 C 199.218 267.151, 199.167 266.803, 196.890 264.322 C 193.487 260.612, 177.872 250.476, 172.789 248.677 C 170.430 247.842, 163.325 245.956, 157 244.486 C 130.459 238.318, 117.249 230.201, 119.425 221.401 C 119.819 219.805, 122.708 216.025, 125.843 213 C 132.631 206.451, 144.632 200.032, 173.500 187.506 C 192.935 179.074, 208.620 171.621, 210.350 169.998 C 210.818 169.559, 206.230 165.763, 200.156 161.563 C 187.759 152.992, 188.717 154.776, 187.598 138.177 C 186.614 123.589, 189.960 108.381, 194.539 106.623 C 198.687 105.032, 203.556 106.141, 211.552 110.500 C 216.093 112.975, 220.450 115, 221.235 115 C 222.893 115, 230.512 96.637, 229.520 95.032 C 229.169 94.464, 228.308 94, 227.607 94 C 224.615 94, 195.417 85.439, 183.048 80.935 C 174.081 77.671, 169.371 76.400, 168.923 77.125 C 167.520 79.394, 165.146 106.954, 163.450 140.640 L 162.789 153.780 169.866 157.499 C 181.255 163.484, 184.517 167.582, 179.871 170.069 C 178.700 170.696, 172.870 171.499, 166.915 171.854 L 156.087 172.500 92.510 200 C 51.250 217.847, 29.383 227.793, 30.216 228.333 C 30.922 228.792, 57.150 238.496, 88.500 249.899 L 145.500 270.631 150.753 268.327 C 160.810 263.915, 168.300 264.362, 169.576 269.449 C 170.469 273.005, 166.068 280.108, 160.490 284.115 C 158.021 285.888, 156 287.766, 156 288.289 C 156 288.811, 153.312 316.297, 150.027 349.369 C 146.742 382.441, 142.473 425.925, 140.541 446 C 138.609 466.075, 136.760 484.476, 136.432 486.891 L 135.835 491.282 152.161 476.391 C 161.141 468.201, 182.008 449.125, 198.533 434 C 249.995 386.898, 294.346 346.444, 298.080 343.201 L 301.660 340.091 300.383 332.295 C 297.903 317.161, 299.103 303.184, 303.095 300.699 C 307.516 297.946, 315.921 304.866, 324.890 318.640 C 330.090 326.627, 330.325 326.831, 337.345 329.458 C 368.481 341.111, 411.039 356.370, 428.500 362.143 C 449.117 368.958, 475.842 377, 477.876 377 C 478.444 377, 477.082 373.063, 474.850 368.250 C 472.618 363.438, 467.074 351.400, 462.531 341.500 C 457.988 331.600, 448.070 310, 440.493 293.500 C 432.915 277, 424.773 259.231, 422.399 254.014 C 418.311 245.028, 417.865 244.455, 413.935 243.145 C 409.387 241.629, 401 234.262, 401 231.782 C 401 230.924, 401.816 229.214, 402.814 227.982 C 405.550 224.603, 412.914 224.209, 420.500 227.035 C 423.800 228.265, 427.482 229.260, 428.683 229.246 C 432.685 229.199, 443.244 219.914, 473.727 189.640 C 490.351 173.129, 503.851 159.518, 503.727 159.394 C 503.439 159.106, 454.598 152.544, 438 150.562 C 422.641 148.728, 399.084 147.023, 388.924 147.010 C 382.053 147.001, 381.123 147.241, 378.924 149.595 C 377.591 151.022, 375.285 152.822, 373.800 153.595 C 364.755 158.301, 360.701 148.934, 367.903 139.972 L 370.878 136.269 364.907 96.384 C 361.623 74.448, 358.613 55.706, 358.218 54.736 C 357.585 53.182, 356.311 53.670, 347.500 58.843 M 250.500 62.083 C 237.230 62.884, 228.523 64.134, 216.500 66.966 C 207.998 68.968, 191.293 74.717, 190.569 75.889 C 190.330 76.274, 193.458 77.858, 197.519 79.408 L 204.902 82.227 212.257 79.166 C 220.471 75.746, 236.148 71, 239.230 71 C 240.333 71, 242.748 69.672, 244.597 68.049 C 249.285 63.933, 254.405 63.126, 259.193 65.748 C 262.211 67.402, 263.679 67.634, 266.721 66.938 C 268.800 66.463, 275.675 65.756, 282 65.368 C 295.004 64.568, 293.797 63.402, 279 62.469 C 274.325 62.174, 268.700 61.804, 266.500 61.646 C 264.300 61.488, 257.100 61.685, 250.500 62.083 M 252.142 86.778 C 244.141 99.248, 238.644 115.615, 235.117 137.468 L 233.186 149.436 239.760 155.459 C 243.376 158.772, 247.808 163.788, 249.610 166.605 C 253.689 172.982, 257 182.615, 257 188.108 L 257 192.280 251.396 191.701 C 245.795 191.123, 233.803 186.132, 227.879 181.914 C 224.058 179.193, 223.309 179.403, 204.235 188.548 C 185.831 197.373, 170.075 207.533, 165.936 213.247 C 162.457 218.050, 162.104 222.934, 164.950 226.930 C 170.705 235.012, 196.978 242.859, 234.179 247.607 L 247.857 249.353 256.658 241.022 C 266.687 231.528, 270.365 229.009, 274.199 229.004 C 277.328 228.999, 280.767 232.958, 284.017 240.305 C 285.159 242.887, 286.542 245, 287.090 245 C 288.907 245, 307.354 237.822, 316.567 233.531 C 331.325 226.657, 347.010 215.361, 355.069 205.804 L 359.196 200.908 355.565 196.204 C 345.808 183.565, 333.100 173.994, 326.090 174.004 C 323.206 174.008, 317.737 177.026, 314.147 180.594 C 311.664 183.062, 303.938 186.291, 297.901 187.383 L 294.303 188.034 293.641 177.935 C 292.854 165.932, 293.708 163.443, 302.364 152.500 L 307.901 145.500 303.329 137 C 289.701 111.661, 273.470 92.253, 259.197 84.231 L 255.214 81.992 252.142 86.778 M 80.525 100.360 C 71.872 112.401, 64.585 123.976, 61.016 131.348 L 57.015 139.615 41.758 137.858 C 33.366 136.892, 25.220 136.079, 23.655 136.051 C 20.466 135.994, 19.942 135.313, 39.207 156.257 L 46.915 164.635 44.534 170.568 C 43.224 173.830, 41.658 179.425, 41.053 183 C 39.315 193.284, 39.130 193.785, 36.752 194.674 C 35.513 195.137, 31.173 197.239, 27.106 199.343 L 19.712 203.170 28.857 209.227 L 38.002 215.283 52.751 208.420 C 60.863 204.645, 69.344 200.702, 71.597 199.657 L 75.695 197.757 76.321 174.129 C 76.975 149.427, 78.686 129.987, 82.046 109.104 C 83.143 102.286, 83.919 96.598, 83.770 96.464 C 83.622 96.330, 82.161 98.084, 80.525 100.360 M 149.500 105.959 C 134.456 118.568, 120.604 137.645, 112.444 156.993 C 108.826 165.571, 103.499 182.833, 104.241 183.575 C 104.476 183.809, 107.893 182.811, 111.834 181.356 C 116.478 179.641, 119 178.168, 119 177.169 C 119 173.373, 122.542 161.807, 125.967 154.417 C 131.229 143.064, 138.967 132.003, 148.728 121.877 L 157.096 113.196 156.798 106.644 L 156.500 100.092 149.500 105.959 M 315.989 101.435 C 308.950 104.030, 300 109.064, 300 110.427 C 300 111.196, 303.375 118.145, 307.500 125.869 C 316.019 141.821, 316.055 142.033, 312.997 157.785 C 311.899 163.442, 311 168.505, 311 169.035 C 311 170.565, 316.627 170.155, 317.978 168.526 C 319.985 166.109, 325.638 165.533, 328.562 167.449 C 329.966 168.369, 332.327 168.982, 333.808 168.811 C 336.416 168.510, 336.490 168.327, 336.180 162.928 C 335.860 157.360, 335.864 157.352, 341.930 150.658 L 348 143.960 348 135.029 C 348 117.659, 343.369 105.864, 334.800 101.405 C 331.452 99.663, 320.749 99.680, 315.989 101.435 M 269.819 171.252 C 266.877 175.915, 263.680 183.018, 262.664 187.150 L 262.012 189.801 266.756 188.372 C 269.365 187.587, 275.429 186.665, 280.231 186.324 L 288.961 185.703 286.731 181.602 C 284.499 177.497, 274.851 166.998, 273.315 167.002 C 272.867 167.003, 271.294 168.915, 269.819 171.252 M 372.384 171.023 C 368.470 173.223, 362.064 175.836, 358.148 176.830 C 354.232 177.825, 350.764 178.903, 350.441 179.226 C 350.117 179.549, 353.125 181.533, 357.123 183.634 C 361.122 185.735, 366.165 189.140, 368.330 191.199 C 371.980 194.671, 372.231 195.260, 371.777 199.288 C 371.489 201.838, 367.408 212.022, 361.894 223.949 C 353.665 241.746, 351.809 244.972, 346.928 249.958 C 341.040 255.975, 329.833 263.800, 319.325 269.233 C 315.850 271.030, 313.006 272.747, 313.004 273.049 C 313.002 273.351, 314.483 274.134, 316.295 274.790 C 320.419 276.281, 325.190 281.144, 328.274 287 C 330.416 291.067, 331.455 291.848, 339.072 295.118 C 359.545 303.907, 377.669 308.963, 388.782 308.985 C 397.624 309.003, 402.281 307.227, 404.974 302.810 C 409.342 295.646, 406.935 284.495, 396.481 263.466 L 389.008 248.431 377.521 240.966 C 370.719 236.544, 366.028 232.838, 366.018 231.876 C 365.995 229.770, 368.475 222.770, 371.123 217.468 L 373.211 213.288 382.355 212.689 C 387.385 212.359, 394.034 212.352, 397.132 212.673 L 402.764 213.255 413.749 204.163 C 426.166 193.886, 434.713 184.994, 435.610 181.418 C 438.129 171.380, 429.447 168.014, 399.500 167.421 L 379.500 167.025 372.384 171.023 M 296.013 200.698 C 293.559 205.384, 289.621 211.869, 287.264 215.109 C 284.906 218.349, 283.222 221, 283.522 221 C 285.719 221, 294.425 215.315, 298.756 211.052 C 303.432 206.448, 303.999 205.435, 303.993 201.695 C 303.990 199.383, 303.199 196.305, 302.232 194.839 L 300.477 192.178 296.013 200.698 M 254.450 200.447 C 250.905 201.944, 246 207.395, 246 209.837 C 246 211.713, 249.829 216.186, 253.486 218.583 C 255.788 220.091, 265.123 222.964, 267.801 222.988 C 268.625 222.996, 268.195 221.808, 266.630 219.750 C 263.268 215.331, 259.184 207.014, 258.260 202.705 C 257.507 199.194, 257.470 199.172, 254.450 200.447 M 37.600 247.750 C 38.973 261.551, 40.858 259.346, 20.300 267.993 L 2.100 275.648 25.646 285.074 C 38.596 290.258, 49.523 295.175, 49.928 296 C 50.332 296.825, 51.734 302.551, 53.042 308.724 L 55.420 319.948 66.960 324.934 C 73.307 327.677, 84.800 332.687, 92.500 336.069 C 100.200 339.450, 114.058 345.513, 123.296 349.541 L 140.091 356.865 136.512 352.182 C 121.935 333.114, 109.385 310.588, 89.883 268.492 L 84.320 256.484 79.410 254.839 C 76.709 253.935, 66.202 250.226, 56.060 246.597 C 45.918 242.969, 37.442 240, 37.225 240 C 37.007 240, 37.176 243.488, 37.600 247.750 M 475.650 255.814 C 470.834 268.802, 461.503 287.109, 455.570 295.208 L 449.925 302.915 455.013 312.930 C 457.812 318.438, 460.434 323.150, 460.841 323.402 C 461.815 324.004, 471.400 296.818, 474.443 284.824 C 477.572 272.489, 479.212 260.864, 478.818 253.814 L 478.500 248.129 475.650 255.814 M 106.122 277.735 C 111.444 293.059, 117.560 306.006, 124.312 316.248 C 129.935 324.776, 139.464 336, 141.080 336 C 141.586 336, 142 331.154, 142 325.230 L 142 314.461 137.467 308.480 C 131.209 300.224, 124.099 285.656, 122.032 276.855 L 120.304 269.500 113.402 268.269 C 109.606 267.593, 105.496 266.799, 104.268 266.505 C 102.101 265.986, 102.154 266.312, 106.122 277.735 M 66 336.339 C 66 337.501, 87.618 366.349, 93.877 373.537 L 101.798 382.636 97.424 402.568 C 95.018 413.531, 92.855 423.288, 92.618 424.251 C 92.103 426.343, 90.437 427.299, 110.697 413.881 C 126.639 403.323, 126.949 403.172, 130.471 404.253 C 132.654 404.922, 134.371 404.990, 134.875 404.425 C 135.574 403.642, 139.048 372.005, 139.012 366.750 C 139.003 365.438, 138.171 365, 135.688 365 C 128.300 365, 116.074 360.722, 98 351.814 C 68.483 337.264, 66 336.064, 66 336.339 M 361 355.144 C 353.355 360.780, 333.447 370.212, 321.500 373.859 C 307.384 378.168, 296.375 380, 284.602 380 L 274.425 380 269.938 384.750 C 267.471 387.363, 264.345 390.765, 262.993 392.312 L 260.535 395.124 271.018 394.502 C 293.643 393.160, 313.981 389.240, 328.810 383.365 C 344.999 376.950, 360.361 367.790, 371 358.208 L 375.500 354.155 371.782 352.578 C 369.737 351.710, 367.712 351.020, 367.282 351.044 C 366.852 351.069, 364.025 352.914, 361 355.144 M 396.069 366.585 C 390.385 371.348, 385.995 374.001, 383.800 373.999 C 383.085 373.999, 379.647 372.649, 376.160 370.999 C 372.673 369.350, 369.457 368, 369.013 368 C 368.569 368, 367.698 371.038, 367.078 374.750 C 364.866 387.994, 365.984 386.519, 353.662 392.452 C 339.187 399.422, 327.595 403.427, 312.612 406.634 C 302.468 408.805, 297.089 409.304, 279.500 409.705 C 267.278 409.983, 255.574 409.745, 251.500 409.135 L 244.500 408.087 229.226 423.794 L 213.951 439.500 221.320 439.789 L 228.688 440.079 233.043 447.689 L 237.398 455.300 239.949 451.951 C 246.702 443.086, 245.494 443.618, 255.689 445.012 C 264.500 446.216, 286.838 445.978, 290 444.647 C 291.013 444.220, 296.691 448.676, 307.500 458.382 C 318.963 468.675, 323.608 472.288, 323.882 471.124 C 324.092 470.231, 325.217 462.118, 326.382 453.094 L 328.500 436.689 337.107 434.408 C 356.795 429.190, 375.108 419.613, 393.500 404.916 C 405.202 395.564, 430.409 370.958, 429.278 369.991 C 428.850 369.625, 422.875 367.832, 416 366.007 C 409.125 364.182, 403.050 362.542, 402.500 362.361 C 401.950 362.181, 399.056 364.082, 396.069 366.585" stroke="none" fill="black" fill-rule="evenodd"/>
</svg>