<svg xmlns="http://www.w3.org/2000/svg" width="500" height="500" viewBox="0 0 500 500" version="1.1">
	<path d="M 247.277 84.123 C 244.158 91.005, 243.952 91.220, 240.928 90.776 C 235.344 89.957, 216.722 92.007, 207.500 94.458 C 200.159 96.408, 191.681 99.500, 182.365 103.623 C 181.741 103.899, 178.450 100.722, 175.051 96.563 C 171.652 92.403, 168.742 89, 168.583 89 C 168.425 89, 167.233 94.455, 165.935 101.123 L 163.575 113.246 151.826 121.117 C 145.364 125.446, 139.665 129.778, 139.161 130.744 C 137.638 133.664, 132.234 157.797, 130.565 169.128 C 128.961 180.020, 128.353 212.013, 129.750 211.985 C 131.720 211.944, 132.784 210.084, 133.458 205.500 C 136.322 186.043, 149.486 161.381, 167.006 142.653 C 186.640 121.664, 217.072 104.493, 246.173 97.985 L 251.846 96.716 257.670 101.336 L 263.493 105.955 265.690 100.978 L 267.887 96 276.377 96 C 284.309 96, 306.500 99.719, 312.751 102.096 C 314.141 102.624, 315.454 102.880, 315.669 102.664 C 315.884 102.449, 311.659 100.450, 306.280 98.222 C 294.672 93.413, 284.048 91.035, 270.769 90.271 L 261.038 89.711 256.269 83.381 C 253.646 79.899, 251.275 77.041, 251 77.030 C 250.725 77.019, 249.050 80.211, 247.277 84.123 M 300.986 125.634 C 289.169 132.507, 277.663 139.200, 275.418 140.509 L 271.335 142.888 264.289 136.694 C 260.414 133.287, 255.217 129.048, 252.740 127.273 L 248.236 124.045 245.496 128.186 C 236.348 142.009, 230.732 155.539, 228.545 169.021 C 226 184.717, 226.158 185.677, 232.500 193 C 235.525 196.493, 238 199.947, 238 200.676 C 238 202.632, 233.960 202.288, 228.035 199.826 L 222.804 197.652 214.152 201.912 C 197.638 210.044, 179.213 222.693, 175.396 228.518 C 173.922 230.767, 173.962 231.137, 175.974 233.963 C 177.161 235.631, 181.833 239.884, 186.355 243.416 C 203.898 257.114, 225.331 268.423, 241.541 272.535 C 255.886 276.174, 255.790 276.196, 260.500 268.249 C 264.633 261.276, 267.498 259.508, 270.555 262.046 C 272.980 264.058, 272.194 267.404, 267.879 273.429 L 263.758 279.184 264.451 287.134 L 265.145 295.084 257.893 303.792 C 245.196 319.040, 222.240 341.159, 215.360 344.774 C 204.388 350.539, 197.856 348.378, 194.885 338 C 192.508 329.697, 193.442 308.833, 197.182 286.730 C 198.209 280.659, 198.675 279.746, 201.695 277.880 C 204.935 275.877, 209 269.625, 209 266.643 C 209 262.374, 192.922 252.919, 181.500 250.471 C 170.517 248.118, 158.706 243.462, 155.048 240.044 C 146.491 232.051, 156.294 223.667, 192.500 208.015 C 207.200 201.660, 217 196.835, 217 195.954 C 217 195.591, 213.833 193.188, 209.963 190.614 C 205.939 187.939, 202.513 184.850, 201.963 183.402 C 200.336 179.124, 200.781 160.589, 202.620 155.991 C 205.447 148.925, 208.414 148.470, 218.299 153.586 C 222.110 155.558, 225.537 156.796, 225.914 156.336 C 227.502 154.401, 231.110 143.987, 230.522 143.035 C 230.170 142.466, 229.121 142, 228.191 142 C 225.878 142, 200.832 134.401, 193.772 131.557 L 188.044 129.250 187.532 132.375 C 186.417 139.181, 185.076 155.251, 184.419 169.664 L 183.729 184.829 188.614 187.306 C 200.875 193.523, 199.205 198, 184.625 198 C 180.502 198, 176.567 199.284, 164.500 204.566 C 148.094 211.747, 113.209 226.844, 97.649 233.497 C 90.231 236.668, 88.255 237.885, 89.649 238.424 C 90.667 238.818, 109.449 245.663, 131.386 253.635 L 171.272 268.129 176.072 266.065 C 182.057 263.490, 185.194 263.452, 187.435 265.928 C 189.815 268.558, 188.761 271.335, 183.408 276.538 C 178.498 281.309, 179.070 278.524, 175.516 315 C 174.686 323.525, 173.554 334.775, 173 340 C 172.446 345.225, 170.864 361.200, 169.483 375.500 C 168.103 389.800, 166.469 406.353, 165.853 412.283 C 165.237 418.214, 164.968 423.301, 165.254 423.587 C 165.704 424.037, 208.825 385.051, 265.327 333.111 L 282.068 317.721 281.348 311.611 C 279.777 298.274, 280.687 290.552, 283.952 289.515 C 287.142 288.503, 291.323 291.458, 296.050 298.066 C 303.880 309.015, 302.609 308.269, 331 318.576 C 365.313 331.034, 404.554 344, 407.944 344 C 408.400 344, 399.091 322.892, 387.258 297.094 C 365.836 250.389, 365.726 250.180, 361.809 248.414 C 359.645 247.438, 356.760 245.315, 355.398 243.696 C 353.174 241.053, 353.064 240.535, 354.325 238.626 C 356.175 235.827, 363.690 235.259, 369.282 237.496 L 373.320 239.112 378.410 235.589 C 381.210 233.651, 393.142 222.404, 404.928 210.596 C 429.036 186.441, 428.161 188.849, 413.500 187.023 C 409.100 186.475, 398.744 185.149, 390.486 184.075 C 382.228 183.002, 367.737 181.588, 358.284 180.933 L 341.095 179.742 337.971 182.371 C 336.252 183.817, 333.750 185.276, 332.410 185.612 C 326.965 186.979, 325.109 180.400, 329.476 175.211 L 331.951 172.269 330.019 159.885 C 328.957 153.073, 326.900 139.850, 325.448 130.500 C 323.996 121.150, 322.733 113.419, 322.641 113.320 C 322.548 113.220, 312.804 118.762, 300.986 125.634 M 242.500 119.678 C 230.402 120.711, 205.939 126.671, 204.546 128.925 C 203.997 129.814, 210.949 133, 213.437 133 C 214.206 133, 216.973 132.083, 219.586 130.963 C 222.200 129.843, 227.975 127.995, 232.419 126.857 C 236.864 125.719, 241.429 123.936, 242.564 122.894 C 244.782 120.860, 249.995 120.392, 252.932 121.964 C 254.108 122.593, 257.985 122.513, 264.116 121.733 C 273.462 120.544, 273.480 120.536, 268.500 119.857 C 263.388 119.160, 249.673 119.065, 242.500 119.678 M 247.202 136.750 C 242.215 143.843, 238.856 152.993, 235.988 167.300 C 233.180 181.306, 233.207 181.482, 238.969 186.662 C 244.430 191.572, 249.444 200.724, 250.523 207.750 C 251.134 211.725, 251.025 212, 248.838 211.994 C 244.742 211.985, 239.076 209.982, 232.893 206.358 L 226.887 202.838 213.532 209.321 C 193.026 219.277, 183 226.976, 183 232.768 C 183 237.931, 190.118 242.567, 204 246.447 C 210.420 248.242, 228.770 251.543, 237.733 252.516 L 243.967 253.192 251.233 246.555 C 261.763 236.938, 264.416 236.754, 269 245.322 C 270.375 247.892, 272.091 249.996, 272.813 249.997 C 275.439 250.003, 294.697 241.620, 302.402 237.118 C 306.748 234.578, 313.429 229.485, 317.249 225.799 L 324.195 219.098 320.853 214.444 C 311.316 201.165, 299.179 195.722, 293.387 202.126 C 290.936 204.836, 285.472 207.553, 280.750 208.410 L 277 209.091 277 201.480 C 277 193.118, 277.448 191.869, 283.125 184.408 C 285.256 181.607, 287 178.975, 287 178.559 C 287 177.369, 276.031 158.939, 272.681 154.500 C 265.830 145.422, 253.270 134, 250.138 134 C 249.587 134, 248.266 135.238, 247.202 136.750 M 120.619 152.669 C 117.566 156.976, 113.450 163.738, 111.474 167.696 L 107.880 174.892 102.690 174.380 C 99.836 174.099, 94.489 173.448, 90.808 172.934 C 87.128 172.420, 83.540 172, 82.835 172 C 82.130 172, 84.474 175.037, 88.043 178.750 C 91.612 182.463, 95.997 187.107, 97.789 189.071 L 101.046 192.642 99.108 197.071 C 98.042 199.507, 96.852 204.109, 96.464 207.299 L 95.757 213.097 88.741 216.631 L 81.724 220.164 87.612 224.105 C 91.341 226.601, 94.242 227.868, 95.522 227.561 C 96.634 227.294, 102.822 224.587, 109.272 221.544 L 121 216.013 121.013 206.256 C 121.028 194.585, 123.425 165.853, 125.373 154 C 126.141 149.325, 126.635 145.351, 126.470 145.169 C 126.306 144.987, 123.673 148.362, 120.619 152.669 M 290.500 148.063 C 287.750 149.140, 284.422 150.855, 283.105 151.874 L 280.710 153.728 286.575 164.886 L 292.439 176.044 290.779 185.772 C 288.855 197.049, 289.356 198.340, 294.566 195.534 C 297.571 193.916, 298.583 193.809, 301.369 194.817 C 307.334 196.973, 308.340 196.527, 307.622 192.040 C 307.035 188.367, 307.325 187.701, 311.609 182.877 L 316.229 177.675 315.815 169.007 C 315.326 158.782, 311.991 150.607, 307.141 147.742 C 303.306 145.477, 296.780 145.603, 290.500 148.063 M 171.840 152.900 C 159.966 163.798, 150.300 178.753, 144.933 194.533 C 141.722 203.974, 141.349 206.437, 143.250 205.648 C 143.938 205.363, 146.140 204.594, 148.145 203.938 C 151.545 202.827, 151.865 202.365, 152.906 197.071 C 155.061 186.120, 163.257 172.022, 174.262 160.338 C 178.696 155.631, 179.096 154.807, 178.812 150.982 L 178.500 146.788 171.840 152.900 M 336.578 194.874 C 335.619 196.425, 325.619 200.720, 321.246 201.458 C 318.911 201.853, 317 202.474, 317.001 202.838 C 317.002 203.202, 319.364 204.800, 322.251 206.389 C 328.895 210.046, 333 213.829, 333 216.296 C 333 217.354, 329.962 225.017, 326.250 233.326 C 318.287 251.149, 314.576 255.563, 300.500 263.959 C 289.944 270.255, 290.100 270.132, 291.892 270.767 C 294.558 271.713, 301.031 278.273, 301.622 280.630 C 302.330 283.451, 306.424 285.442, 323.500 291.270 C 333.846 294.801, 336.717 295.375, 344.332 295.433 C 352.908 295.498, 353.238 295.415, 355.708 292.548 C 358.042 289.839, 358.202 289.065, 357.649 283.140 C 357.175 278.064, 355.795 274.096, 351.195 264.581 L 345.345 252.479 337.172 247.113 C 331.833 243.608, 329 241.108, 329 239.902 C 329 238.887, 330.111 235.544, 331.470 232.472 L 333.940 226.888 344.598 227.071 L 355.256 227.254 364.745 219.428 C 382.937 204.426, 383.397 198.208, 366.546 195.093 C 359.500 193.791, 337.348 193.629, 336.578 194.874 M 258.051 201.393 C 254.520 208.791, 254.236 210.549, 256.750 209.447 C 257.712 209.025, 261.762 208.478, 265.750 208.231 C 269.738 207.984, 273 207.481, 273 207.113 C 273 204.903, 264.297 195, 262.355 195 C 261.666 195, 259.729 197.877, 258.051 201.393 M 279.121 217.697 C 277.841 220.339, 275.489 224.435, 273.896 226.800 C 272.303 229.165, 271 231.314, 271 231.576 C 271 232.713, 277.271 228.662, 280.484 225.449 C 284.236 221.698, 285.042 217.807, 282.725 214.638 C 281.581 213.074, 281.210 213.388, 279.121 217.697 M 247.230 219.551 C 246.012 220.404, 244.530 222.010, 243.937 223.118 C 241.848 227.021, 247.219 231.673, 255.941 233.516 L 259.382 234.243 256.782 231.152 C 255.352 229.453, 253.429 225.798, 252.510 223.031 C 251.591 220.264, 250.526 218, 250.142 218 C 249.759 218, 248.448 218.698, 247.230 219.551 M 94.407 253.749 L 95.102 260.807 89.801 263.225 C 86.885 264.555, 81.251 266.914, 77.281 268.467 C 73.311 270.021, 70.246 271.589, 70.471 271.953 C 70.696 272.317, 78.100 275.475, 86.924 278.970 C 96.894 282.919, 103.125 285.926, 103.381 286.912 C 103.608 287.786, 104.351 291.310, 105.032 294.744 C 105.713 298.178, 106.772 301.669, 107.385 302.501 C 108.239 303.660, 154.597 324.675, 164.300 328.303 C 165.478 328.743, 164.528 326.821, 161.550 322.738 C 152.807 310.752, 142.359 291.501, 130.739 265.965 C 127.786 259.476, 126.838 258.277, 123.905 257.323 C 122.032 256.713, 115.325 254.320, 109 252.005 C 91.862 245.732, 93.596 245.525, 94.407 253.749 M 407.540 256.750 C 406.347 261.591, 396.328 281.338, 392.602 286.190 C 390.621 288.770, 389.009 291.245, 389.021 291.690 C 389.032 292.136, 390.767 295.571, 392.875 299.325 L 396.709 306.150 400.347 296.021 C 405.296 282.241, 407.783 272.068, 408.600 262.250 C 409.287 254.004, 408.817 251.565, 407.540 256.750 M 141.603 268.556 C 144.604 280.513, 153.740 298.508, 161.842 308.423 L 167.500 315.347 167.789 307.234 C 168.074 299.270, 168.013 299.034, 164.474 294.398 C 159.804 288.280, 156.592 281.873, 154.477 274.457 C 153.543 271.181, 152.491 268.208, 152.139 267.852 C 151.788 267.495, 149.118 266.888, 146.206 266.502 L 140.912 265.800 141.603 268.556 M 118.617 321.250 C 126.361 331.983, 131.569 338.629, 135.844 343.231 L 140.239 347.963 136.967 362.496 C 135.167 370.489, 133.917 377.250, 134.188 377.521 C 134.458 377.792, 139.815 374.623, 146.090 370.478 C 155.752 364.098, 157.973 363.026, 160.585 363.486 L 163.671 364.029 164.837 353.264 C 166.703 336.037, 166.764 336.377, 161.653 335.676 C 154.681 334.720, 148.508 332.287, 131.756 323.891 C 123.097 319.551, 115.746 316, 115.421 316 C 115.096 316, 116.534 318.363, 118.617 321.250 M 323 330.044 C 316.216 334.836, 301.161 341.340, 290.500 344.086 C 286.100 345.219, 277.991 346.398, 272.480 346.705 L 262.460 347.264 258.615 351.684 C 256.501 354.115, 254.934 356.260, 255.135 356.452 C 256.290 357.553, 280.020 354.819, 288.992 352.551 C 304.977 348.509, 325.323 337.995, 332.411 330.112 C 334.591 327.688, 334.454 327.355, 330.998 326.661 C 329.188 326.298, 326.985 327.229, 323 330.044 M 351.172 336.317 C 349.974 337.592, 347.284 339.596, 345.194 340.771 L 341.393 342.907 336.051 340.432 C 333.113 339.071, 330.607 338.079, 330.483 338.229 C 330.358 338.378, 329.760 341.376, 329.153 344.892 C 328.546 348.407, 327.926 351.391, 327.775 351.523 C 326.635 352.517, 313.312 358.725, 308.140 360.672 C 293.117 366.326, 286.071 367.392, 262.547 367.564 L 240.594 367.725 230.336 378.362 L 220.078 389 225.392 389 L 230.707 389 233.714 394.604 L 236.721 400.208 239.611 396.086 L 242.500 391.964 249 392.679 C 256.527 393.505, 270.973 393.461, 273.678 392.602 C 275.047 392.168, 278.405 394.606, 286.516 401.924 C 292.557 407.374, 297.715 411.619, 297.978 411.356 C 298.240 411.093, 299.144 405.443, 299.986 398.801 L 301.518 386.724 306.697 385.398 C 325.452 380.598, 342.643 370.070, 361.521 351.822 C 368.411 345.163, 373.915 339.581, 373.752 339.419 C 373.456 339.123, 354.570 334, 353.774 334 C 353.540 334, 352.369 335.043, 351.172 336.317" stroke="none" fill="black" fill-rule="evenodd"/>
</svg>